<?xml version="1.0" encoding="UTF-8" standalone="no"?>
<!-- Created with Inkscape (http://www.inkscape.org/) -->

<svg
   xmlns:dc="http://purl.org/dc/elements/1.1/"
   xmlns:cc="http://creativecommons.org/ns#"
   xmlns:rdf="http://www.w3.org/1999/02/22-rdf-syntax-ns#"
   xmlns:svg="http://www.w3.org/2000/svg"
   xmlns="http://www.w3.org/2000/svg"
   xmlns:sodipodi="http://sodipodi.sourceforge.net/DTD/sodipodi-0.dtd"
   xmlns:inkscape="http://www.inkscape.org/namespaces/inkscape"
   id="svg2"
   version="1.1"
   inkscape:version="0.91 r13725"
   xml:space="preserve"
   width="382.26251"
   height="102.2125"
   viewBox="0 0 382.26251 102.2125"
   sodipodi:docname="complat_logo_01_neu_CMYK.svg"><metadata
     id="metadata8"><rdf:RDF><cc:Work
         rdf:about=""><dc:format>image/svg+xml</dc:format><dc:type
           rdf:resource="http://purl.org/dc/dcmitype/StillImage" /><dc:title></dc:title></cc:Work></rdf:RDF></metadata><defs
     id="defs6" /><sodipodi:namedview
     pagecolor="#ffffff"
     bordercolor="#666666"
     borderopacity="1"
     objecttolerance="10"
     gridtolerance="10"
     guidetolerance="10"
     inkscape:pageopacity="0"
     inkscape:pageshadow="2"
     inkscape:window-width="2560"
     inkscape:window-height="1080"
     id="namedview4"
     showgrid="false"
     inkscape:zoom="1.72"
     inkscape:cx="465.23708"
     inkscape:cy="-66.925996"
     inkscape:window-x="0"
     inkscape:window-y="0"
     inkscape:window-maximized="0"
     inkscape:current-layer="g12" /><g
     id="g10"
     inkscape:groupmode="layer"
     inkscape:label="ink_ext_XXXXXX"
     transform="matrix(1.25,0,0,-1.25,0,102.2125)"><g
       id="g12"
       transform="scale(0.1,0.1)"><path
         d="m 451.301,496.602 -15.18,-15.586 -164.25,127.422 47.586,48.925 131.844,-160.761"
         style="fill:#4dc5ea;fill-opacity:1;fill-rule:nonzero;stroke:none"
         id="path14"
         inkscape:connector-curvature="0" /><path
         d="m 962.063,643.512 c 3.535,17.676 5.3,32.402 5.3,44.187 0,16.496 -3.535,27.981 -10.605,34.465 -7.07,6.484 -17.664,9.727 -31.809,9.727 -13.554,0 -24.754,-2.95 -33.594,-8.848 -8.835,-5.898 -16.343,-14.59 -22.527,-26.074 -6.191,-11.496 -11.64,-26.086 -16.348,-43.762 -4.714,-17.684 -9.433,-38.016 -14.14,-60.996 -5.899,-27.703 -10.313,-50.984 -13.262,-69.844 -2.949,-18.867 -4.414,-34.773 -4.414,-47.742 0,-18.859 3.391,-31.523 10.164,-38.008 6.777,-6.484 16.938,-9.726 30.488,-9.726 19.438,0 35.493,8.25 48.164,24.765 12.668,16.504 22.239,39.5 28.723,68.985 l 124.607,0 c -12.37,-60.657 -37.12,-104.668 -74.236,-132.051 -37.121,-27.383 -85.136,-41.074 -144.043,-41.074 -28.281,0 -51.855,2.949 -70.703,8.828 -18.855,5.886 -34.031,14.277 -45.515,25.176 -11.489,10.898 -19.59,24.148 -24.297,39.753 -4.719,15.606 -7.075,33.125 -7.075,52.559 0,16.484 1.321,34.004 3.977,52.559 2.645,18.547 6.328,38.125 11.047,58.742 6.48,30.625 14.43,59.629 23.855,87.012 9.422,27.382 22.532,51.375 39.325,71.98 16.796,20.605 38.449,36.953 64.96,49.023 26.504,12.071 60.383,18.118 101.633,18.118 48.313,0 85.572,-9.414 111.802,-28.223 26.21,-18.82 39.32,-48.535 39.32,-89.16 0,-7.656 -0.59,-15.617 -1.77,-23.86 -1.18,-8.25 -2.65,-17.089 -4.42,-26.511 l -124.607,0"
         style="fill:#736b68;fill-opacity:1;fill-rule:nonzero;stroke:none"
         id="path76"
         inkscape:connector-curvature="0" /><path
         d="m 1303.16,426.891 c 11.2,0 21.06,2.207 29.6,6.629 8.55,4.414 16.2,12.668 22.98,24.757 6.78,12.078 13.25,28.875 19.45,50.391 6.19,21.504 12.82,49.355 19.89,83.543 4.12,19.445 7.5,36.68 10.15,51.711 2.65,15.027 3.98,28.437 3.98,40.234 0,15.907 -3.24,27.84 -9.72,35.801 -6.48,7.949 -17.38,11.934 -32.69,11.934 -13.56,0 -24.76,-2.95 -33.6,-8.848 -8.83,-5.898 -16.34,-14.59 -22.53,-26.074 -6.19,-11.496 -11.64,-26.086 -16.34,-43.762 -4.72,-17.684 -9.44,-38.016 -14.14,-60.996 -5.9,-27.703 -10.32,-50.984 -13.27,-69.844 -2.95,-18.867 -4.41,-34.773 -4.41,-47.742 0,-18.859 3.39,-31.523 10.17,-38.008 6.77,-6.484 16.93,-9.726 30.48,-9.726 z m -16.78,-79.375 c -28.28,0 -51.86,2.949 -70.71,8.828 -18.85,5.886 -34.03,14.277 -45.51,25.176 -11.49,10.898 -19.59,24.148 -24.3,39.753 -4.72,15.606 -7.07,33.125 -7.07,52.559 0,16.484 1.32,34.004 3.97,52.559 2.65,18.547 6.33,38.125 11.05,58.742 6.48,30.625 14.43,59.629 23.86,87.012 9.42,27.382 22.53,51.375 39.32,71.98 16.8,20.605 38.45,36.953 64.96,49.023 26.51,12.071 60.38,18.118 101.63,18.118 28.87,0 52.88,-3.098 72.03,-9.278 19.15,-6.191 34.32,-14.726 45.51,-25.617 11.19,-10.898 19,-23.992 23.42,-39.305 4.42,-15.312 6.63,-32.101 6.63,-50.351 0,-15.313 -1.18,-31.516 -3.53,-48.586 -2.37,-17.078 -5.61,-34.746 -9.73,-52.996 -7.07,-34.746 -15.61,-66.699 -25.62,-95.852 -10.02,-29.148 -23.57,-54.179 -40.66,-75.078 -17.09,-20.906 -38.89,-37.246 -65.4,-49.023 -26.51,-11.778 -59.79,-17.664 -99.85,-17.664"
         style="fill:#736b68;fill-opacity:1;fill-rule:nonzero;stroke:none"
         id="path78"
         inkscape:connector-curvature="0" /><path
         d="m 1757.38,747.367 1.77,0 c 16.49,20.02 34.17,34.016 53.03,41.965 18.85,7.949 40.06,11.934 63.62,11.934 22.38,0 40.95,-5.012 55.67,-15.02 14.73,-10.019 25.34,-23.859 31.82,-41.535 18.85,19.434 38.44,33.723 58.77,42.852 20.33,9.132 43.46,13.703 69.38,13.703 26.51,0 48.6,-6.633 66.27,-19.883 17.68,-13.254 26.52,-32.246 26.52,-56.985 0,-2.949 -0.6,-16.785 -1.77,-20.32 l -74.23,-357.812 -124.61,0 63.64,307.449 c 1.17,5.879 2.06,11.621 2.64,17.219 0.59,5.593 0.89,10.75 0.89,15.468 0,11.778 -2.51,21.043 -7.52,27.821 -5.01,6.777 -14.58,10.168 -28.72,10.168 -20.04,0 -34.18,-6.778 -42.42,-20.325 -8.25,-13.543 -14.43,-30.332 -18.56,-50.351 l -63.63,-307.449 -121.95,0 63.63,307.449 c 1.17,5.879 2.06,11.621 2.65,17.219 0.58,5.593 0.89,10.75 0.89,15.468 0,11.778 -2.51,21.043 -7.52,27.821 -5.01,6.777 -14.58,10.168 -28.72,10.168 -20.04,0 -34.18,-6.778 -42.43,-20.325 -8.25,-13.543 -14.43,-30.332 -18.55,-50.351 l -63.63,-307.449 -124.61,0 91.91,446.25 124.61,0 -8.84,-45.149"
         style="fill:#736b68;fill-opacity:1;fill-rule:nonzero;stroke:none"
         id="path80"
         inkscape:connector-curvature="0" /><path
         d="m 2325.3,382.875 c 6.72,0 12.55,1.852 17.5,5.563 4.95,3.707 9.37,9.355 13.25,16.949 3.89,7.59 7.43,17.39 10.61,29.402 3.18,12.008 6.54,26.484 10.08,43.438 2.83,12.359 5.14,23.839 6.89,34.433 1.78,10.598 2.66,19.953 2.66,28.078 0,9.18 -1.68,16.157 -5.04,20.922 -3.36,4.766 -9.28,7.153 -17.76,7.153 -7.79,0 -14.14,-2.208 -19.1,-6.622 -4.95,-4.414 -9.19,-10.593 -12.73,-18.539 -3.53,-7.949 -6.54,-17.484 -9,-28.609 -2.48,-11.121 -5.14,-23.398 -7.96,-36.816 -2.83,-14.832 -5.13,-27.723 -6.9,-38.672 -1.76,-10.946 -2.64,-20.309 -2.64,-28.075 0,-19.074 6.71,-28.605 20.14,-28.605 z m 12.73,226.875 -5.83,-29.77 1.06,0 c 9.54,13.11 20.06,22.239 31.54,27.372 11.5,5.136 24.5,7.711 38.99,7.711 10.96,0 20.16,-1.68 27.58,-5.04 7.42,-3.359 13.26,-7.871 17.5,-13.523 4.24,-5.656 7.24,-12.375 9.01,-20.152 1.77,-7.785 2.65,-15.914 2.65,-24.395 0,-12.734 -1.33,-25.992 -3.98,-39.781 -2.64,-13.789 -5.21,-26.52 -7.68,-38.184 -2.83,-13.437 -6.19,-28.203 -10.08,-44.285 -3.89,-16.09 -9.45,-31.027 -16.7,-44.816 -7.25,-13.789 -16.88,-25.282 -28.91,-34.473 -12.02,-9.187 -27.4,-13.789 -46.13,-13.789 -13.44,0 -24.49,2.293 -33.14,6.867 -8.68,4.574 -15.83,12.492 -21.49,23.758 l -1.05,0.211 -29.17,-140.523 -74.78,0 79.55,382.812 71.06,0"
         style="fill:#4dc5ea;fill-opacity:1;fill-rule:nonzero;stroke:none"
         id="path82"
         inkscape:connector-curvature="0" /><path
         d="m 2637.61,724.75 -79.54,-382.812 -74.79,0 79.55,382.812 74.78,0"
         style="fill:#4dc5ea;fill-opacity:1;fill-rule:nonzero;stroke:none"
         id="path84"
         inkscape:connector-curvature="0" /><path
         d="m 2780.76,471.313 c -9.18,-0.352 -17.75,-0.708 -25.71,-1.059 -7.96,-0.352 -15.12,-1.856 -21.48,-4.5 -6.36,-2.649 -11.85,-7.063 -16.44,-13.238 -4.59,-6.184 -8.13,-15.274 -10.61,-27.278 -0.7,-2.82 -1.24,-5.914 -1.59,-9.265 -0.35,-3.356 -0.53,-6.446 -0.53,-9.27 0,-6.707 1.5,-12.351 4.51,-16.941 3,-4.59 8.57,-6.887 16.71,-6.887 10.95,0 19.7,3.262 26.25,9.797 6.54,6.531 11.75,14.387 15.64,23.566 3.89,9.184 6.72,18.801 8.49,28.86 1.76,10.058 3.36,18.797 4.76,26.215 z m 56.75,-79.52 c -1.77,-8.137 -3.1,-16.441 -3.97,-24.93 -0.89,-8.484 -1.68,-16.797 -2.39,-24.925 l -69.47,0 3.71,35.625 -1.05,-0.004 c -20.86,-27.289 -47.04,-40.934 -78.5,-40.934 -20.51,0 -35,5.305 -43.49,15.902 -8.48,10.61 -12.72,24.215 -12.72,40.832 0,8.836 1.05,18.379 3.18,28.633 4.24,20.496 11.05,36.758 20.41,48.778 9.38,12.019 20.42,21.207 33.15,27.57 12.73,6.363 26.77,10.43 42.17,12.195 15.37,1.77 31.01,2.653 46.93,2.653 l 14.32,0 4.23,20.707 c 1.78,7.785 2.66,13.98 2.66,18.585 0,6.368 -1.78,11.411 -5.31,15.133 -3.54,3.715 -10.08,5.575 -19.61,5.575 -6.37,0 -11.68,-1.153 -15.92,-3.446 -4.24,-2.301 -7.69,-5.308 -10.33,-9.019 -2.66,-3.711 -4.79,-8.043 -6.37,-12.993 -1.6,-4.953 -2.92,-10.074 -3.98,-15.378 l -73.19,0 c 3.54,16.261 8.75,29.695 15.65,40.3 6.89,10.606 15.47,18.911 25.72,24.922 9.9,6.356 21.04,10.864 33.42,13.516 12.36,2.644 25.8,3.973 40.29,3.973 18.39,0 33.5,-1.415 45.35,-4.243 11.84,-2.832 21.21,-6.804 28.11,-11.933 6.89,-5.125 11.75,-11.227 14.58,-18.297 2.82,-7.07 4.25,-14.848 4.25,-23.332 0,-9.195 -1.43,-19.801 -4.25,-31.824 l -27.58,-133.641"
         style="fill:#4dc5ea;fill-opacity:1;fill-rule:nonzero;stroke:none"
         id="path86"
         inkscape:connector-curvature="0" /><path
         d="m 2914.36,609.75 30.23,0 9.01,42.48 81.67,33.458 -15.91,-75.938 38.71,0 -9.54,-46.25 -38.72,0 -29.69,-143.156 c -0.71,-3.891 -1.42,-7.336 -2.13,-10.34 -0.7,-3.008 -1.06,-5.922 -1.06,-8.75 0,-4.598 1.41,-8.133 4.24,-10.606 2.83,-2.472 8.14,-3.71 15.92,-3.71 2.47,0 4.77,0 6.89,0 2.48,0 4.77,0.351 6.9,1.058 l -9.55,-46.058 c -5.3,-0.665 -10.96,-1.25 -16.97,-1.754 -6.01,-0.493 -13.62,-0.746 -22.8,-0.746 -13.08,0 -23.69,1.503 -31.82,4.503 -8.14,2.997 -14.41,6.883 -18.83,11.649 -4.43,4.765 -7.42,9.887 -9.02,15.363 -1.59,5.473 -2.38,10.684 -2.38,15.629 0,2.473 0.18,4.68 0.53,6.621 0.35,1.942 0.7,3.793 1.05,5.563 l 33.95,164.734 -30.23,0 9.55,46.25"
         style="fill:#4dc5ea;fill-opacity:1;fill-rule:nonzero;stroke:none"
         id="path88"
         inkscape:connector-curvature="0" /><path
         d="m 453.684,446.742 14.785,-23.168 -238.11,-186.84 -46.406,72.692 269.731,137.316"
         style="fill:#4dc5ea;fill-opacity:1;fill-rule:nonzero;stroke:none"
         id="path90"
         inkscape:connector-curvature="0" /><path
         d="M 210.855,396.672 C 115.438,384.121 47.1172,299.719 53.1641,205.051 c -9.6524,16.203 -16.25,34.574 -18.8672,54.465 -10.2774,78.168 44.7617,149.832 122.8671,160.101 35.512,4.668 69.645,-4.168 97.367,-22.5 -14.215,1.567 -28.855,1.496 -43.676,-0.445 z m 81.899,12.262 C 213.059,470.105 98.8086,455.078 37.6289,375.371 -23.5664,295.664 -8.53516,181.434 71.1719,120.254 150.918,59.043 265.129,74.0625 326.309,153.777 387.488,233.473 372.5,347.715 292.754,408.934"
         style="fill:#4dc5ea;fill-opacity:1;fill-rule:nonzero;stroke:none"
         id="path92"
         inkscape:connector-curvature="0" /><path
         d="m 375.309,704.668 c 9.355,-71.176 -40.731,-136.438 -111.914,-145.789 -71.188,-9.363 -136.446,40.73 -145.805,111.906 -9.363,71.156 40.738,136.438 111.922,145.797 71.187,9.359 136.441,-40.754 145.797,-111.914"
         style="fill:#4dc5ea;fill-opacity:1;fill-rule:nonzero;stroke:none"
         id="path94"
         inkscape:connector-curvature="0" /><path
         d="m 270.453,781.422 c 10.856,1.426 21.625,1.484 32.082,0.336 -20.324,13.461 -45.406,19.945 -71.496,16.519 -57.391,-7.547 -97.824,-60.172 -90.277,-117.57 1.918,-14.621 6.773,-28.109 13.89,-40.008 -4.425,69.504 45.739,131.512 115.801,140.723"
         style="fill:#ffffff;fill-opacity:1;fill-rule:nonzero;stroke:none"
         id="path96"
         inkscape:connector-curvature="0" /><path
         d="m 563.801,463.07 c 15.379,-40.215 -4.758,-85.3 -44.985,-100.687 -40.222,-15.395 -85.3,4.742 -100.691,44.965 -15.391,40.226 4.734,85.304 44.961,100.687 40.219,15.387 85.32,-4.734 100.715,-44.965"
         style="fill:#4dc5ea;fill-opacity:1;fill-rule:nonzero;stroke:none"
         id="path98"
         inkscape:connector-curvature="0" /><path
         d="m 497.895,486.977 c 6.132,2.355 12.343,3.867 18.621,4.644 -13.719,5.027 -29.215,5.317 -43.918,-0.305 -32.364,-12.371 -48.559,-48.66 -36.192,-81.011 3.16,-8.239 7.891,-15.403 13.649,-21.352 -12.25,39.848 8.312,82.902 47.84,98.024"
         style="fill:#ffffff;fill-opacity:1;fill-rule:nonzero;stroke:none"
         id="path100"
         inkscape:connector-curvature="0" /><text
         xml:space="preserve"
         style="font-style:italic;font-variant:normal;font-weight:normal;font-stretch:normal;font-size:202.58496094px;line-height:125%;font-family:'Liberation Sans';-inkscape-font-specification:'Liberation Sans, Italic';text-align:start;letter-spacing:0px;word-spacing:0px;writing-mode:lr-tb;text-anchor:start;fill:#736b68;fill-opacity:1;stroke:none;stroke-width:1px;stroke-linecap:butt;stroke-linejoin:miter;stroke-opacity:1;"
         x="638.89636"
         y="-28.899736"
         id="text3692"
         sodipodi:linespacing="125%"
         transform="scale(0.99693296,-1.0030765)"><tspan
           sodipodi:role="line"
           id="tspan3694"
           x="638.89636"
           y="-28.899736"
           style="font-size:211.09828186px;letter-spacing:7.64903688px;word-spacing:-38.24518585px;fill:#736b68;fill-opacity:1;"><tspan
   style="font-size:183.56373596px;letter-spacing:7.64903688px;word-spacing:-38.24518585px;fill:#736b68;fill-opacity:1;"
   id="tspan3698">the</tspan> Compounds Platform</tspan></text>
</g></g></svg>