<?xml version="1.0" encoding="UTF-8" standalone="no"?>
<!-- Created with Inkscape (http://www.inkscape.org/) -->

<svg
   xmlns:dc="http://purl.org/dc/elements/1.1/"
   xmlns:cc="http://creativecommons.org/ns#"
   xmlns:rdf="http://www.w3.org/1999/02/22-rdf-syntax-ns#"
   xmlns:svg="http://www.w3.org/2000/svg"
   xmlns="http://www.w3.org/2000/svg"
   xmlns:sodipodi="http://sodipodi.sourceforge.net/DTD/sodipodi-0.dtd"
   xmlns:inkscape="http://www.inkscape.org/namespaces/inkscape"
   id="svg2"
   version="1.1"
   inkscape:version="0.91 r13725"
   xml:space="preserve"
   width="382.26251"
   height="102.2125"
   viewBox="0 0 382.26251 102.2125"
   sodipodi:docname="complat_logo_01_neu_CMYK_pathed.svg"><metadata
     id="metadata8"><rdf:RDF><cc:Work
         rdf:about=""><dc:format>image/svg+xml</dc:format><dc:type
           rdf:resource="http://purl.org/dc/dcmitype/StillImage" /><dc:title></dc:title></cc:Work></rdf:RDF></metadata><defs
     id="defs6" /><sodipodi:namedview
     pagecolor="#ffffff"
     bordercolor="#666666"
     borderopacity="1"
     objecttolerance="10"
     gridtolerance="10"
     guidetolerance="10"
     inkscape:pageopacity="0"
     inkscape:pageshadow="2"
     inkscape:window-width="2558"
     inkscape:window-height="1044"
     id="namedview4"
     showgrid="false"
     inkscape:zoom="1.72"
     inkscape:cx="465.23708"
     inkscape:cy="-66.925996"
     inkscape:window-x="0"
     inkscape:window-y="18"
     inkscape:window-maximized="0"
     inkscape:current-layer="text3692" /><g
     id="g10"
     inkscape:groupmode="layer"
     inkscape:label="ink_ext_XXXXXX"
     transform="matrix(1.25,0,0,-1.25,0,102.2125)"><g
       id="g12"
       transform="scale(0.1,0.1)"><path
         d="m 451.301,496.602 -15.18,-15.586 -164.25,127.422 47.586,48.925 131.844,-160.761"
         style="fill:#4dc5ea;fill-opacity:1;fill-rule:nonzero;stroke:none"
         id="path14"
         inkscape:connector-curvature="0" /><path
         d="m 962.063,643.512 c 3.535,17.676 5.3,32.402 5.3,44.187 0,16.496 -3.535,27.981 -10.605,34.465 -7.07,6.484 -17.664,9.727 -31.809,9.727 -13.554,0 -24.754,-2.95 -33.594,-8.848 -8.835,-5.898 -16.343,-14.59 -22.527,-26.074 -6.191,-11.496 -11.64,-26.086 -16.348,-43.762 -4.714,-17.684 -9.433,-38.016 -14.14,-60.996 -5.899,-27.703 -10.313,-50.984 -13.262,-69.844 -2.949,-18.867 -4.414,-34.773 -4.414,-47.742 0,-18.859 3.391,-31.523 10.164,-38.008 6.777,-6.484 16.938,-9.726 30.488,-9.726 19.438,0 35.493,8.25 48.164,24.765 12.668,16.504 22.239,39.5 28.723,68.985 l 124.607,0 c -12.37,-60.657 -37.12,-104.668 -74.236,-132.051 -37.121,-27.383 -85.136,-41.074 -144.043,-41.074 -28.281,0 -51.855,2.949 -70.703,8.828 -18.855,5.886 -34.031,14.277 -45.515,25.176 -11.489,10.898 -19.59,24.148 -24.297,39.753 -4.719,15.606 -7.075,33.125 -7.075,52.559 0,16.484 1.321,34.004 3.977,52.559 2.645,18.547 6.328,38.125 11.047,58.742 6.48,30.625 14.43,59.629 23.855,87.012 9.422,27.382 22.532,51.375 39.325,71.98 16.796,20.605 38.449,36.953 64.96,49.023 26.504,12.071 60.383,18.118 101.633,18.118 48.313,0 85.572,-9.414 111.802,-28.223 26.21,-18.82 39.32,-48.535 39.32,-89.16 0,-7.656 -0.59,-15.617 -1.77,-23.86 -1.18,-8.25 -2.65,-17.089 -4.42,-26.511 l -124.607,0"
         style="fill:#736b68;fill-opacity:1;fill-rule:nonzero;stroke:none"
         id="path76"
         inkscape:connector-curvature="0" /><path
         d="m 1303.16,426.891 c 11.2,0 21.06,2.207 29.6,6.629 8.55,4.414 16.2,12.668 22.98,24.757 6.78,12.078 13.25,28.875 19.45,50.391 6.19,21.504 12.82,49.355 19.89,83.543 4.12,19.445 7.5,36.68 10.15,51.711 2.65,15.027 3.98,28.437 3.98,40.234 0,15.907 -3.24,27.84 -9.72,35.801 -6.48,7.949 -17.38,11.934 -32.69,11.934 -13.56,0 -24.76,-2.95 -33.6,-8.848 -8.83,-5.898 -16.34,-14.59 -22.53,-26.074 -6.19,-11.496 -11.64,-26.086 -16.34,-43.762 -4.72,-17.684 -9.44,-38.016 -14.14,-60.996 -5.9,-27.703 -10.32,-50.984 -13.27,-69.844 -2.95,-18.867 -4.41,-34.773 -4.41,-47.742 0,-18.859 3.39,-31.523 10.17,-38.008 6.77,-6.484 16.93,-9.726 30.48,-9.726 z m -16.78,-79.375 c -28.28,0 -51.86,2.949 -70.71,8.828 -18.85,5.886 -34.03,14.277 -45.51,25.176 -11.49,10.898 -19.59,24.148 -24.3,39.753 -4.72,15.606 -7.07,33.125 -7.07,52.559 0,16.484 1.32,34.004 3.97,52.559 2.65,18.547 6.33,38.125 11.05,58.742 6.48,30.625 14.43,59.629 23.86,87.012 9.42,27.382 22.53,51.375 39.32,71.98 16.8,20.605 38.45,36.953 64.96,49.023 26.51,12.071 60.38,18.118 101.63,18.118 28.87,0 52.88,-3.098 72.03,-9.278 19.15,-6.191 34.32,-14.726 45.51,-25.617 11.19,-10.898 19,-23.992 23.42,-39.305 4.42,-15.312 6.63,-32.101 6.63,-50.351 0,-15.313 -1.18,-31.516 -3.53,-48.586 -2.37,-17.078 -5.61,-34.746 -9.73,-52.996 -7.07,-34.746 -15.61,-66.699 -25.62,-95.852 -10.02,-29.148 -23.57,-54.179 -40.66,-75.078 -17.09,-20.906 -38.89,-37.246 -65.4,-49.023 -26.51,-11.778 -59.79,-17.664 -99.85,-17.664"
         style="fill:#736b68;fill-opacity:1;fill-rule:nonzero;stroke:none"
         id="path78"
         inkscape:connector-curvature="0" /><path
         d="m 1757.38,747.367 1.77,0 c 16.49,20.02 34.17,34.016 53.03,41.965 18.85,7.949 40.06,11.934 63.62,11.934 22.38,0 40.95,-5.012 55.67,-15.02 14.73,-10.019 25.34,-23.859 31.82,-41.535 18.85,19.434 38.44,33.723 58.77,42.852 20.33,9.132 43.46,13.703 69.38,13.703 26.51,0 48.6,-6.633 66.27,-19.883 17.68,-13.254 26.52,-32.246 26.52,-56.985 0,-2.949 -0.6,-16.785 -1.77,-20.32 l -74.23,-357.812 -124.61,0 63.64,307.449 c 1.17,5.879 2.06,11.621 2.64,17.219 0.59,5.593 0.89,10.75 0.89,15.468 0,11.778 -2.51,21.043 -7.52,27.821 -5.01,6.777 -14.58,10.168 -28.72,10.168 -20.04,0 -34.18,-6.778 -42.42,-20.325 -8.25,-13.543 -14.43,-30.332 -18.56,-50.351 l -63.63,-307.449 -121.95,0 63.63,307.449 c 1.17,5.879 2.06,11.621 2.65,17.219 0.58,5.593 0.89,10.75 0.89,15.468 0,11.778 -2.51,21.043 -7.52,27.821 -5.01,6.777 -14.58,10.168 -28.72,10.168 -20.04,0 -34.18,-6.778 -42.43,-20.325 -8.25,-13.543 -14.43,-30.332 -18.55,-50.351 l -63.63,-307.449 -124.61,0 91.91,446.25 124.61,0 -8.84,-45.149"
         style="fill:#736b68;fill-opacity:1;fill-rule:nonzero;stroke:none"
         id="path80"
         inkscape:connector-curvature="0" /><path
         d="m 2325.3,382.875 c 6.72,0 12.55,1.852 17.5,5.563 4.95,3.707 9.37,9.355 13.25,16.949 3.89,7.59 7.43,17.39 10.61,29.402 3.18,12.008 6.54,26.484 10.08,43.438 2.83,12.359 5.14,23.839 6.89,34.433 1.78,10.598 2.66,19.953 2.66,28.078 0,9.18 -1.68,16.157 -5.04,20.922 -3.36,4.766 -9.28,7.153 -17.76,7.153 -7.79,0 -14.14,-2.208 -19.1,-6.622 -4.95,-4.414 -9.19,-10.593 -12.73,-18.539 -3.53,-7.949 -6.54,-17.484 -9,-28.609 -2.48,-11.121 -5.14,-23.398 -7.96,-36.816 -2.83,-14.832 -5.13,-27.723 -6.9,-38.672 -1.76,-10.946 -2.64,-20.309 -2.64,-28.075 0,-19.074 6.71,-28.605 20.14,-28.605 z m 12.73,226.875 -5.83,-29.77 1.06,0 c 9.54,13.11 20.06,22.239 31.54,27.372 11.5,5.136 24.5,7.711 38.99,7.711 10.96,0 20.16,-1.68 27.58,-5.04 7.42,-3.359 13.26,-7.871 17.5,-13.523 4.24,-5.656 7.24,-12.375 9.01,-20.152 1.77,-7.785 2.65,-15.914 2.65,-24.395 0,-12.734 -1.33,-25.992 -3.98,-39.781 -2.64,-13.789 -5.21,-26.52 -7.68,-38.184 -2.83,-13.437 -6.19,-28.203 -10.08,-44.285 -3.89,-16.09 -9.45,-31.027 -16.7,-44.816 -7.25,-13.789 -16.88,-25.282 -28.91,-34.473 -12.02,-9.187 -27.4,-13.789 -46.13,-13.789 -13.44,0 -24.49,2.293 -33.14,6.867 -8.68,4.574 -15.83,12.492 -21.49,23.758 l -1.05,0.211 -29.17,-140.523 -74.78,0 79.55,382.812 71.06,0"
         style="fill:#4dc5ea;fill-opacity:1;fill-rule:nonzero;stroke:none"
         id="path82"
         inkscape:connector-curvature="0" /><path
         d="m 2637.61,724.75 -79.54,-382.812 -74.79,0 79.55,382.812 74.78,0"
         style="fill:#4dc5ea;fill-opacity:1;fill-rule:nonzero;stroke:none"
         id="path84"
         inkscape:connector-curvature="0" /><path
         d="m 2780.76,471.313 c -9.18,-0.352 -17.75,-0.708 -25.71,-1.059 -7.96,-0.352 -15.12,-1.856 -21.48,-4.5 -6.36,-2.649 -11.85,-7.063 -16.44,-13.238 -4.59,-6.184 -8.13,-15.274 -10.61,-27.278 -0.7,-2.82 -1.24,-5.914 -1.59,-9.265 -0.35,-3.356 -0.53,-6.446 -0.53,-9.27 0,-6.707 1.5,-12.351 4.51,-16.941 3,-4.59 8.57,-6.887 16.71,-6.887 10.95,0 19.7,3.262 26.25,9.797 6.54,6.531 11.75,14.387 15.64,23.566 3.89,9.184 6.72,18.801 8.49,28.86 1.76,10.058 3.36,18.797 4.76,26.215 z m 56.75,-79.52 c -1.77,-8.137 -3.1,-16.441 -3.97,-24.93 -0.89,-8.484 -1.68,-16.797 -2.39,-24.925 l -69.47,0 3.71,35.625 -1.05,-0.004 c -20.86,-27.289 -47.04,-40.934 -78.5,-40.934 -20.51,0 -35,5.305 -43.49,15.902 -8.48,10.61 -12.72,24.215 -12.72,40.832 0,8.836 1.05,18.379 3.18,28.633 4.24,20.496 11.05,36.758 20.41,48.778 9.38,12.019 20.42,21.207 33.15,27.57 12.73,6.363 26.77,10.43 42.17,12.195 15.37,1.77 31.01,2.653 46.93,2.653 l 14.32,0 4.23,20.707 c 1.78,7.785 2.66,13.98 2.66,18.585 0,6.368 -1.78,11.411 -5.31,15.133 -3.54,3.715 -10.08,5.575 -19.61,5.575 -6.37,0 -11.68,-1.153 -15.92,-3.446 -4.24,-2.301 -7.69,-5.308 -10.33,-9.019 -2.66,-3.711 -4.79,-8.043 -6.37,-12.993 -1.6,-4.953 -2.92,-10.074 -3.98,-15.378 l -73.19,0 c 3.54,16.261 8.75,29.695 15.65,40.3 6.89,10.606 15.47,18.911 25.72,24.922 9.9,6.356 21.04,10.864 33.42,13.516 12.36,2.644 25.8,3.973 40.29,3.973 18.39,0 33.5,-1.415 45.35,-4.243 11.84,-2.832 21.21,-6.804 28.11,-11.933 6.89,-5.125 11.75,-11.227 14.58,-18.297 2.82,-7.07 4.25,-14.848 4.25,-23.332 0,-9.195 -1.43,-19.801 -4.25,-31.824 l -27.58,-133.641"
         style="fill:#4dc5ea;fill-opacity:1;fill-rule:nonzero;stroke:none"
         id="path86"
         inkscape:connector-curvature="0" /><path
         d="m 2914.36,609.75 30.23,0 9.01,42.48 81.67,33.458 -15.91,-75.938 38.71,0 -9.54,-46.25 -38.72,0 -29.69,-143.156 c -0.71,-3.891 -1.42,-7.336 -2.13,-10.34 -0.7,-3.008 -1.06,-5.922 -1.06,-8.75 0,-4.598 1.41,-8.133 4.24,-10.606 2.83,-2.472 8.14,-3.71 15.92,-3.71 2.47,0 4.77,0 6.89,0 2.48,0 4.77,0.351 6.9,1.058 l -9.55,-46.058 c -5.3,-0.665 -10.96,-1.25 -16.97,-1.754 -6.01,-0.493 -13.62,-0.746 -22.8,-0.746 -13.08,0 -23.69,1.503 -31.82,4.503 -8.14,2.997 -14.41,6.883 -18.83,11.649 -4.43,4.765 -7.42,9.887 -9.02,15.363 -1.59,5.473 -2.38,10.684 -2.38,15.629 0,2.473 0.18,4.68 0.53,6.621 0.35,1.942 0.7,3.793 1.05,5.563 l 33.95,164.734 -30.23,0 9.55,46.25"
         style="fill:#4dc5ea;fill-opacity:1;fill-rule:nonzero;stroke:none"
         id="path88"
         inkscape:connector-curvature="0" /><path
         d="m 453.684,446.742 14.785,-23.168 -238.11,-186.84 -46.406,72.692 269.731,137.316"
         style="fill:#4dc5ea;fill-opacity:1;fill-rule:nonzero;stroke:none"
         id="path90"
         inkscape:connector-curvature="0" /><path
         d="M 210.855,396.672 C 115.438,384.121 47.1172,299.719 53.1641,205.051 c -9.6524,16.203 -16.25,34.574 -18.8672,54.465 -10.2774,78.168 44.7617,149.832 122.8671,160.101 35.512,4.668 69.645,-4.168 97.367,-22.5 -14.215,1.567 -28.855,1.496 -43.676,-0.445 z m 81.899,12.262 C 213.059,470.105 98.8086,455.078 37.6289,375.371 -23.5664,295.664 -8.53516,181.434 71.1719,120.254 150.918,59.043 265.129,74.0625 326.309,153.777 387.488,233.473 372.5,347.715 292.754,408.934"
         style="fill:#4dc5ea;fill-opacity:1;fill-rule:nonzero;stroke:none"
         id="path92"
         inkscape:connector-curvature="0" /><path
         d="m 375.309,704.668 c 9.355,-71.176 -40.731,-136.438 -111.914,-145.789 -71.188,-9.363 -136.446,40.73 -145.805,111.906 -9.363,71.156 40.738,136.438 111.922,145.797 71.187,9.359 136.441,-40.754 145.797,-111.914"
         style="fill:#4dc5ea;fill-opacity:1;fill-rule:nonzero;stroke:none"
         id="path94"
         inkscape:connector-curvature="0" /><path
         d="m 270.453,781.422 c 10.856,1.426 21.625,1.484 32.082,0.336 -20.324,13.461 -45.406,19.945 -71.496,16.519 -57.391,-7.547 -97.824,-60.172 -90.277,-117.57 1.918,-14.621 6.773,-28.109 13.89,-40.008 -4.425,69.504 45.739,131.512 115.801,140.723"
         style="fill:#ffffff;fill-opacity:1;fill-rule:nonzero;stroke:none"
         id="path96"
         inkscape:connector-curvature="0" /><path
         d="m 563.801,463.07 c 15.379,-40.215 -4.758,-85.3 -44.985,-100.687 -40.222,-15.395 -85.3,4.742 -100.691,44.965 -15.391,40.226 4.734,85.304 44.961,100.687 40.219,15.387 85.32,-4.734 100.715,-44.965"
         style="fill:#4dc5ea;fill-opacity:1;fill-rule:nonzero;stroke:none"
         id="path98"
         inkscape:connector-curvature="0" /><path
         d="m 497.895,486.977 c 6.132,2.355 12.343,3.867 18.621,4.644 -13.719,5.027 -29.215,5.317 -43.918,-0.305 -32.364,-12.371 -48.559,-48.66 -36.192,-81.011 3.16,-8.239 7.891,-15.403 13.649,-21.352 -12.25,39.848 8.312,82.902 47.84,98.024"
         style="fill:#ffffff;fill-opacity:1;fill-rule:nonzero;stroke:none"
         id="path100"
         inkscape:connector-curvature="0" /><g
         transform="scale(0.99693296,-1.0030765)"
         style="font-style:italic;font-variant:normal;font-weight:normal;font-stretch:normal;font-size:202.58496094px;line-height:125%;font-family:'Liberation Sans';-inkscape-font-specification:'Liberation Sans, Italic';text-align:start;letter-spacing:0px;word-spacing:0px;writing-mode:lr-tb;text-anchor:start;fill:#736b68;fill-opacity:1;stroke:none;stroke-width:1px;stroke-linecap:butt;stroke-linejoin:miter;stroke-opacity:1"
         id="text3692"><path
           d="m 679.05093,-29.258259 q -3.31634,0.806676 -7.26009,1.434091 -3.94375,0.717046 -8.24603,0.717046 -7.61861,0 -12.01051,-4.571167 -4.30228,-4.571167 -4.30228,-12.100149 0,-2.868183 0.44815,-6.094889 0.44816,-3.316337 0.89631,-5.557106 l 11.29347,-58.708127 -11.20384,0 2.3304,-11.74163 11.3831,0 9.41123,-21.69063 10.75569,0 -4.21265,21.69063 17.92615,0 -2.3304,11.74163 -17.92615,0 -11.20384,57.81182 q -0.35852,1.792615 -0.71704,4.391906 -0.35853,2.599291 -0.35853,4.123013 0,3.764491 1.88225,5.825998 1.88225,2.061507 6.18452,2.061507 2.3304,0 4.30228,-0.268892 2.0615,-0.358523 4.66079,-0.985938 l -1.70298,11.920887 z"
           style="font-size:183.56373596px;letter-spacing:7.64903688px;word-spacing:-38.24518585px;fill:#736b68;fill-opacity:1"
           id="path4160" /><path
           d="m 731.78422,-109.2985 q 3.04745,-4.21265 6.27416,-7.61861 3.2267,-3.40597 7.08082,-5.73637 3.94375,-2.42003 8.60455,-3.67486 4.75043,-1.25483 10.75569,-1.25483 13.26535,0 19.89802,6.54304 6.72231,6.54305 6.72231,18.91209 0,3.226703 -0.62742,7.260086 -0.53778,4.033383 -1.25483,7.439351 l -11.3831,58.528867 -16.22316,0 11.29347,-57.811822 q 0.71705,-3.495598 1.1652,-7.080827 0.44815,-3.67486 0.44815,-6.363785 0,-7.08082 -3.76449,-11.02458 -3.76449,-3.94375 -12.27941,-3.94375 -5.73637,0 -10.84532,2.3304 -5.01932,2.24077 -9.14233,6.45341 -4.12301,4.12302 -7.08083,10.038644 -2.86818,5.825998 -4.30227,13.086087 l -10.57643,54.316223 -16.0439,0 25.81365,-133.012004 16.13353,0 -6.7223,34.59746 q -0.53779,2.95782 -1.25483,5.91563 -0.62742,2.95781 -1.25483,5.46747 -0.62742,2.42003 -1.07557,4.21265 -0.44816,1.79261 -0.62742,2.42003 l 0.26889,0 z"
           style="font-size:183.56373596px;letter-spacing:7.64903688px;word-spacing:-38.24518585px;fill:#736b68;fill-opacity:1"
           id="path4162" /><path
           d="m 830.22919,-73.983994 q -0.44815,2.509661 -0.62742,5.108952 -0.0896,2.50966 -0.17926,5.019321 0,11.920887 5.91563,18.284669 6.00526,6.363782 18.01578,6.363782 5.01932,0 9.14233,-1.254831 4.12302,-1.344461 7.43935,-3.495598 3.40597,-2.240768 5.91563,-5.108952 2.59929,-2.957814 4.30228,-6.18452 l 12.36904,5.646736 q -2.24077,4.033383 -5.46748,8.066766 -3.2267,3.943752 -8.06676,7.170458 -4.75043,3.226706 -11.47274,5.288213 -6.7223,1.971876 -16.0439,1.971876 -8.96307,0 -16.0439,-2.50966 -7.08083,-2.599291 -12.01052,-7.439351 -4.84006,-4.92969 -7.43935,-12.010518 -2.50966,-7.080827 -2.50966,-16.133531 0,-14.161656 3.76449,-25.72402 3.85412,-11.562368 10.57643,-19.718758 6.81193,-8.1564 15.95427,-12.5483 9.23196,-4.48154 19.98765,-4.48154 9.85938,0 17.11947,2.59929 7.26009,2.59929 12.10015,7.26009 4.84006,4.6608 7.17046,11.20384 2.42003,6.45341 2.42003,14.251286 0,1.882246 -0.17926,4.123014 -0.0896,2.240768 -0.35853,4.660798 -0.26889,2.42003 -0.71704,4.92969 -0.35852,2.42003 -0.89631,4.660798 l -70.18086,0 z m 55.92957,-12.369041 q 0.17927,-1.792614 0.2689,-3.316337 0.0896,-1.613353 0.0896,-3.137075 0,-5.915628 -1.61336,-10.217903 -1.61335,-4.39191 -4.57116,-7.17046 -2.95782,-2.86818 -7.08083,-4.21264 -4.12301,-1.34446 -9.14233,-1.34446 -4.30228,0 -9.05271,1.34446 -4.75043,1.25483 -9.14233,4.57116 -4.30228,3.31634 -7.88751,9.05271 -3.58523,5.646734 -5.64673,14.430545 l 53.77843,0 z"
           style="font-size:183.56373596px;letter-spacing:7.64903688px;word-spacing:-38.24518585px;fill:#736b68;fill-opacity:1"
           id="path4164" /><path
           d="m 1085.0387,-63.636124 q -5.0507,7.5245 -11.3382,14.224396 -6.2876,6.699897 -14.4306,11.750588 -8.0399,4.947616 -18.4505,7.936801 -10.3075,2.886109 -23.6042,2.886109 -15.2552,0 -26.69654,-4.741465 -11.33829,-4.741465 -18.86279,-12.884417 -7.52449,-8.246026 -11.23521,-19.275087 -3.71071,-11.132136 -3.71071,-23.810402 0,-12.781339 2.78304,-24.325779 2.78303,-11.54444 7.9368,-21.33659 5.15376,-9.89524 12.57519,-17.83204 7.42142,-8.03987 16.6982,-13.60594 9.37982,-5.56607 20.40892,-8.55525 11.0291,-3.09226 23.3981,-3.09226 13.2967,0 23.295,3.09226 9.9983,2.98918 17.1105,7.9368 7.1122,4.94761 11.4414,11.33828 4.3292,6.39068 6.2876,13.19365 l -18.5536,5.66914 q -1.5461,-4.84454 -4.7414,-9.27678 -3.1954,-4.53531 -8.2461,-8.03988 -4.9476,-3.60763 -11.8536,-5.66914 -6.803,-2.16458 -15.7706,-2.16458 -15.049,0 -26.7995,5.56607 -11.7506,5.46299 -19.89358,15.25515 -8.14295,9.68908 -12.36904,23.08887 -4.22609,13.29672 -4.22609,29.067245 0,9.689081 2.67996,17.832033 2.67996,8.142951 7.9368,14.12132 5.35992,5.875294 13.29675,9.173705 7.9368,3.298411 18.4505,3.298411 9.2767,0 17.0074,-2.473808 7.7306,-2.576884 14.1213,-6.699897 6.4937,-4.226089 11.5444,-9.586006 5.1538,-5.462993 9.0707,-11.235211 l 14.7397,9.173704 z"
           style="font-size:211.09828186px;letter-spacing:7.64903688px;word-spacing:-38.24518585px;fill:#736b68;fill-opacity:1"
           id="path4166" /><path
           d="m 1215.9659,-99.300189 q 0,5.359918 -0.6185,10.82291 -0.6184,5.359917 -2.0615,11.441362 -3.0922,13.605944 -8.6583,23.19195 -5.463,9.586006 -12.8844,15.564375 -7.4214,5.97837 -16.4921,8.761404 -9.0706,2.679958 -19.3781,2.679958 -9.8953,0 -17.9351,-2.989184 -8.0399,-3.09226 -13.8121,-8.864479 -5.6692,-5.875294 -8.8645,-14.224396 -3.0923,-8.452177 -3.0923,-19.172012 0.1031,-4.844541 0.5154,-9.998307 0.5154,-5.153767 1.7523,-10.719835 2.9892,-12.987487 8.246,-22.264267 5.2568,-9.37986 12.4721,-15.4613 7.2153,-6.08145 16.2859,-8.96756 9.1737,-2.88611 19.9966,-2.88611 10.926,0 19.172,2.88611 8.3491,2.88611 13.9152,8.45218 5.6692,5.56607 8.5553,13.60594 2.8861,7.9368 2.8861,18.141261 z m -19.172,0 q 0,-7.936801 -1.7523,-13.502871 -1.7523,-5.56607 -5.1538,-9.07063 -3.2984,-3.60763 -8.0399,-5.25684 -4.7414,-1.6492 -10.6167,-1.6492 -5.463,0 -11.0291,1.33998 -5.463,1.2369 -10.5137,5.15376 -4.9476,3.91686 -9.0706,11.13214 -4.123,7.21527 -6.906,19.17201 -1.34,5.669143 -1.9585,10.82291 -0.5153,5.050691 -0.5153,9.379855 0,8.452177 1.9584,14.430547 1.9584,5.978369 5.3599,9.689081 3.5046,3.710712 8.143,5.462993 4.7414,1.649205 10.3075,1.649205 5.5661,0 10.926,-1.236904 5.463,-1.236904 10.3075,-5.153767 4.8445,-4.019938 8.8645,-11.338286 4.123,-7.318349 6.906,-19.378163 1.4431,-6.18452 1.9585,-11.338287 0.6184,-5.153766 0.8246,-10.307533 z"
           style="font-size:211.09828186px;letter-spacing:7.64903688px;word-spacing:-38.24518585px;fill:#736b68;fill-opacity:1"
           id="path4168" /><path
           d="m 1298.4476,-28.899736 12.7814,-65.349761 q 0.4123,-2.061507 0.8246,-4.535315 0.5153,-2.473808 0.8246,-4.947618 0.4123,-2.47381 0.6184,-4.63839 0.3093,-2.26766 0.3093,-3.81379 0,-7.73065 -3.9169,-11.75058 -3.9169,-4.12302 -12.7814,-4.12302 -5.8752,0 -11.2352,2.67996 -5.2568,2.57689 -9.4829,7.42143 -4.2261,4.74146 -7.3183,11.64751 -3.0923,6.802971 -4.5354,15.152073 l -12.1628,62.257501 -18.4505,0 17.1105,-87.717104 q 0.7215,-3.50457 1.34,-7.31835 0.7215,-3.91687 1.2369,-7.31835 0.6184,-3.50456 0.9276,-5.97837 0.4123,-2.47381 0.5154,-3.19534 l 17.5228,0 q 0,0.51538 -0.3092,2.78304 -0.3092,2.26765 -0.8246,5.25684 -0.4123,2.88611 -0.9277,5.97837 -0.4123,2.98918 -0.8246,5.05069 l 0.3092,0 q 3.0923,-4.84454 6.3907,-8.7614 3.2984,-3.91687 7.2153,-6.59682 3.9168,-2.78304 8.6583,-4.22609 4.8445,-1.44306 10.926,-1.44306 12.4721,0 19.7905,6.18452 7.3183,6.08145 8.7614,17.72896 3.2984,-5.15377 6.8029,-9.48293 3.5046,-4.32917 7.7307,-7.5245 4.3291,-3.29841 9.4829,-5.05069 5.2569,-1.85536 11.8537,-1.85536 13.9151,0 21.3366,7.5245 7.5245,7.5245 7.5245,21.7489 0,3.71071 -0.7216,8.3491 -0.6184,4.63839 -1.443,8.555251 l -13.0906,67.308193 -18.3474,0 12.7814,-65.349761 q 0.4123,-2.061507 0.8246,-4.535315 0.5153,-2.473808 0.8246,-4.947618 0.4123,-2.47381 0.6184,-4.63839 0.3092,-2.26766 0.3092,-3.81379 0,-7.73065 -3.9168,-11.75058 -3.9169,-4.12302 -12.7814,-4.12302 -5.8753,0 -11.2352,2.57689 -5.2568,2.57688 -9.4829,7.31835 -4.2261,4.74146 -7.3184,11.54443 -3.0922,6.802975 -4.5353,15.152077 l -12.1629,62.566727 -18.3474,0 z"
           style="font-size:211.09828186px;letter-spacing:7.64903688px;word-spacing:-38.24518585px;fill:#736b68;fill-opacity:1"
           id="path4170" /><path
           d="m 1471.2233,-26.83823 q -12.6783,0 -20.7181,-5.359917 -7.9368,-5.359917 -11.2353,-15.048999 l -0.5153,0 q 0,0.206151 -0.2062,2.061507 -0.2061,1.752281 -0.6184,4.432239 -0.4123,2.679959 -1.0308,5.875294 -0.5154,3.195336 -1.1338,6.18452 l -8.4522,43.600866 -18.4505,0 25.6658,-132.55488 q 0.8246,-4.01994 1.443,-7.73065 0.6185,-3.71071 1.0308,-6.69989 0.5154,-3.09226 0.7215,-5.25685 0.3092,-2.16458 0.4123,-3.09226 l 17.2136,0 q 0,0.82461 -0.1031,2.67996 -0.103,1.85536 -0.4123,4.22609 -0.2061,2.26766 -0.5154,4.84454 -0.3092,2.57688 -0.7215,4.84454 l 0.4123,0 q 3.7107,-4.84454 7.5245,-8.3491 3.9169,-3.50456 8.246,-5.77222 4.4323,-2.37073 9.483,-3.40148 5.0507,-1.13383 11.2352,-1.13383 8.246,0 14.6367,2.57688 6.3907,2.57688 10.7198,7.31835 4.3292,4.74146 6.5968,11.54444 2.2677,6.69989 2.2677,15.04899 0,5.15377 -0.5154,11.338291 -0.4123,6.081445 -1.6492,12.575191 -2.783,14.636697 -7.3183,25.150381 -4.5353,10.410609 -10.926,17.110505 -6.3907,6.699897 -14.6367,9.895232 -8.246,3.09226 -18.4505,3.09226 z m 13.9152,-101.32305 q -6.5968,0 -12.5752,1.95843 -5.8753,1.95843 -10.926,6.80297 -5.0507,4.74147 -8.9676,12.88442 -3.8137,8.142949 -6.1845,20.511989 -1.9584,10.101383 -1.9584,18.244334 0,6.596821 1.7523,11.750588 1.7523,5.050691 4.9476,8.555253 3.2984,3.401486 7.8337,5.153766 4.6384,1.752281 10.2045,1.752281 6.3906,0 11.5444,-1.855356 5.1538,-1.958431 9.2768,-6.596821 4.2261,-4.741466 7.4214,-12.575191 3.1953,-7.936801 5.463,-19.893539 2.3707,-12.472115 2.3707,-21.233514 0,-12.67827 -4.8445,-19.06894 -4.8445,-6.39067 -15.3582,-6.39067 z"
           style="font-size:211.09828186px;letter-spacing:7.64903688px;word-spacing:-38.24518585px;fill:#736b68;fill-opacity:1"
           id="path4172" /><path
           d="m 1649.9774,-99.300189 q 0,5.359918 -0.6184,10.82291 -0.6185,5.359917 -2.0615,11.441362 -3.0923,13.605944 -8.6583,23.19195 -5.463,9.586006 -12.8845,15.564375 -7.4214,5.97837 -16.492,8.761404 -9.0706,2.679958 -19.3782,2.679958 -9.8952,0 -17.9351,-2.989184 -8.0399,-3.09226 -13.8121,-8.864479 -5.6691,-5.875294 -8.8645,-14.224396 -3.0922,-8.452177 -3.0922,-19.172012 0.1031,-4.844541 0.5154,-9.998307 0.5153,-5.153767 1.7522,-10.719835 2.9892,-12.987487 8.2461,-22.264267 5.2568,-9.37986 12.4721,-15.4613 7.2153,-6.08145 16.2859,-8.96756 9.1737,-2.88611 19.9966,-2.88611 10.926,0 19.172,2.88611 8.3491,2.88611 13.9152,8.45218 5.6691,5.56607 8.5552,13.60594 2.8861,7.9368 2.8861,18.141261 z m -19.172,0 q 0,-7.936801 -1.7522,-13.502871 -1.7523,-5.56607 -5.1538,-9.07063 -3.2984,-3.60763 -8.0399,-5.25684 -4.7415,-1.6492 -10.6168,-1.6492 -5.4629,0 -11.029,1.33998 -5.463,1.2369 -10.5137,5.15376 -4.9476,3.91686 -9.0706,11.13214 -4.123,7.21527 -6.9061,19.17201 -1.34,5.669143 -1.9584,10.82291 -0.5154,5.050691 -0.5154,9.379855 0,8.452177 1.9585,14.430547 1.9584,5.978369 5.3599,9.689081 3.5045,3.710712 8.1429,5.462993 4.7415,1.649205 10.3076,1.649205 5.566,0 10.9259,-1.236904 5.463,-1.236904 10.3076,-5.153767 4.8445,-4.019938 8.8645,-11.338286 4.123,-7.318349 6.906,-19.378163 1.4431,-6.18452 1.9584,-11.338287 0.6185,-5.153766 0.8246,-10.307533 z"
           style="font-size:211.09828186px;letter-spacing:7.64903688px;word-spacing:-38.24518585px;fill:#736b68;fill-opacity:1"
           id="path4174" /><path
           d="m 1707.2057,-140.42725 -12.9875,66.483593 q -0.8246,4.019938 -1.34,8.246027 -0.5153,4.123013 -0.5153,7.215273 0,8.142951 4.3291,12.678266 4.3292,4.535315 14.1213,4.535315 6.5969,0 12.3691,-2.576884 5.8753,-2.679958 10.6167,-7.421424 4.7415,-4.84454 8.0399,-11.544437 3.4015,-6.802972 5.0507,-15.152074 l 12.1629,-62.463655 18.5536,0 -17.1105,87.717112 q -0.7216,3.504561 -1.4431,7.421424 -0.6185,3.813787 -1.2369,7.318348 -0.5154,3.401486 -0.9277,5.875294 -0.3092,2.473808 -0.4123,3.195336 l -17.5228,0 q 0,-0.515377 0.3092,-2.783034 0.3093,-2.267658 0.7216,-5.153767 0.5153,-2.989185 0.9276,-5.978369 0.5154,-3.09226 0.9277,-5.153767 l -0.3092,0 q -3.5046,4.844541 -7.2153,8.761403 -3.7107,3.916863 -8.246,6.699897 -4.4322,2.679959 -9.8952,4.123013 -5.36,1.443055 -12.266,1.443055 -15.2552,0 -22.9858,-7.524499 -7.6276,-7.5245 -7.6276,-21.748896 0,-3.710712 0.6185,-8.349102 0.7215,-4.63839 1.5461,-8.555252 l 13.0906,-67.308196 18.6566,0 z"
           style="font-size:211.09828186px;letter-spacing:7.64903688px;word-spacing:-38.24518585px;fill:#736b68;fill-opacity:1"
           id="path4176" /><path
           d="m 1863.4894,-28.899736 12.9875,-66.48359 q 0.8246,-4.019938 1.3399,-8.142954 0.5154,-4.22609 0.5154,-7.31835 0,-8.14295 -4.3292,-12.67826 -4.3291,-4.53532 -14.1213,-4.53532 -6.5968,0 -12.4721,2.67996 -5.7722,2.57689 -10.5137,7.42143 -4.7414,4.74146 -8.1429,11.54443 -3.2984,6.6999 -4.9476,15.049002 l -12.1629,62.463652 -18.5536,0 17.1105,-87.717104 q 0.7215,-3.50457 1.34,-7.31835 0.7215,-3.91687 1.2369,-7.31835 0.6185,-3.50456 0.9277,-5.97837 0.4123,-2.47381 0.5154,-3.19534 l 17.5228,0 q 0,0.51538 -0.3093,2.78304 -0.3092,2.26765 -0.8246,5.25684 -0.4123,2.88611 -0.9276,5.97837 -0.4123,2.98918 -0.8246,5.05069 l 0.3092,0 q 3.5045,-4.84454 7.2153,-8.7614 3.7107,-3.91687 8.1429,-6.59682 4.5353,-2.78304 9.8952,-4.22609 5.463,-1.44306 12.3691,-1.44306 15.2551,0 22.8827,7.5245 7.7306,7.5245 7.7306,21.7489 0,3.71071 -0.7215,8.3491 -0.6184,4.63839 -1.443,8.555251 l -13.0906,67.308193 -18.6566,0 z"
           style="font-size:211.09828186px;letter-spacing:7.64903688px;word-spacing:-38.24518585px;fill:#736b68;fill-opacity:1"
           id="path4178" /><path
           d="m 1956.0725,-26.735154 q -8.2461,0 -14.6367,-2.576884 -6.3907,-2.576883 -10.7199,-7.318348 -4.3291,-4.741466 -6.5968,-11.441362 -2.2676,-6.802972 -2.2676,-15.152074 0,-4.63839 0.4123,-11.029061 0.5153,-6.390671 1.7522,-12.884417 2.7831,-14.6367 7.3184,-25.04731 4.5353,-10.51368 10.926,-17.21358 6.3906,-6.69989 14.6367,-9.79215 8.246,-3.19534 18.4505,-3.19534 12.6782,0 20.615,5.35992 8.0399,5.35992 11.3383,15.049 l 0.5154,0 q 0.2061,-1.03076 0.6184,-3.40149 0.4123,-2.37073 0.8246,-4.94761 0.5154,-2.67996 0.9277,-5.0507 0.4123,-2.37073 0.5154,-3.29841 l 8.4522,-43.18856 18.5535,0 -25.2534,129.977994 q -0.8246,4.019938 -1.5462,7.73065 -0.6184,3.710712 -1.1338,6.802972 -0.5154,3.09226 -0.8246,5.359918 -0.3092,2.164582 -0.4123,3.09226 l -17.7289,0 q 0,-2.061507 0.5153,-6.596822 0.6185,-4.535314 1.6492,-9.895232 l -0.5153,0 q -3.7108,4.844541 -7.6276,8.349102 -3.8138,3.504562 -8.143,5.875294 -4.3291,2.267658 -9.3798,3.298411 -5.0507,1.133829 -11.2352,1.133829 z m 5.3599,-14.327472 q 6.5968,0 12.4721,-1.958431 5.9784,-1.958431 11.0291,-6.699897 5.0507,-4.84454 8.8644,-12.987492 3.9169,-8.142951 6.2876,-20.511991 1.9585,-10.101382 1.9585,-18.244333 0,-6.6999 -1.7523,-11.75059 -1.7523,-5.05069 -5.0507,-8.45218 -3.1953,-3.50456 -7.8337,-5.25684 -4.5353,-1.75228 -10.1014,-1.75228 -6.2876,0 -11.5445,1.95843 -5.1537,1.85536 -9.3798,6.59682 -4.123,4.63839 -7.3184,12.57519 -3.0922,7.83373 -5.4629,19.790468 -2.3708,12.472116 -2.3708,21.233519 0,12.678266 4.8446,19.068937 4.8445,6.39067 15.3582,6.39067 z"
           style="font-size:211.09828186px;letter-spacing:7.64903688px;word-spacing:-38.24518585px;fill:#736b68;fill-opacity:1"
           id="path4180" /><path
           d="m 2133.3835,-61.574617 q 0,8.761403 -3.5046,15.358225 -3.5045,6.493746 -9.9983,10.82291 -6.3906,4.329164 -15.5644,6.493746 -9.1737,2.061506 -20.615,2.061506 -9.586,0 -16.8013,-1.649205 -7.2153,-1.649205 -12.4721,-4.741465 -5.1538,-3.195336 -8.6583,-7.833726 -3.4015,-4.741465 -5.36,-10.82291 l 15.1521,-5.772218 q 1.5461,4.123013 3.9169,7.421424 2.4738,3.195335 5.9783,5.462992 3.6077,2.164582 8.4522,3.298411 4.9476,1.133829 11.4414,1.133829 6.5968,0 12.0598,-1.030754 5.5661,-1.133828 9.4829,-3.504561 4.02,-2.370733 6.1846,-6.081445 2.2676,-3.710712 2.2676,-8.967554 0,-4.123013 -1.9584,-7.009122 -1.9585,-2.989185 -5.5661,-5.153767 -3.5046,-2.267657 -8.6583,-4.123013 -5.0507,-1.958432 -11.3383,-3.916863 -6.6999,-2.164582 -12.7813,-4.741465 -5.9784,-2.576884 -10.6168,-6.18452 -4.5353,-3.607637 -7.3184,-8.452177 -2.6799,-4.947621 -2.6799,-11.544441 0,-8.45217 3.6076,-14.32747 3.7107,-5.97837 9.8953,-9.68908 6.2876,-3.71071 14.5336,-5.35992 8.3491,-1.75228 17.6259,-1.75228 8.4521,0 15.4613,1.44306 7.0091,1.44305 12.2659,4.63839 5.2569,3.09226 8.6584,8.14295 3.4014,4.94761 4.6383,12.05981 l -16.8012,2.57689 q -2.2677,-8.14296 -8.5553,-11.75059 -6.2876,-3.60764 -16.9043,-3.60764 -5.463,0 -10.3076,0.8246 -4.7414,0.82461 -8.3491,2.67996 -3.6076,1.85536 -5.7722,4.84454 -2.0615,2.98919 -2.0615,7.21528 0,4.22609 1.9584,7.11219 1.9585,2.78304 5.463,4.94762 3.6077,2.164583 8.5553,3.916863 5.0507,1.649206 11.2352,3.607637 5.8753,1.855356 11.8536,4.329164 6.0815,2.473808 10.926,6.18452 4.8446,3.607636 7.9368,8.864478 3.0923,5.153767 3.0923,12.575191 z"
           style="font-size:211.09828186px;letter-spacing:7.64903688px;word-spacing:-38.24518585px;fill:#736b68;fill-opacity:1"
           id="path4182" /><path
           d="m 2268.8632,-174.13288 q 11.9567,0 21.4396,2.78303 9.586,2.78304 16.2859,7.9368 6.6999,5.15377 10.3076,12.67827 3.6076,7.42142 3.6076,16.6982 0,11.33829 -4.123,20.40892 -4.02,8.96755 -11.6475,15.255149 -7.5245,6.18452 -18.4505,9.586006 -10.8229,3.298411 -24.4289,3.298411 l -43.7039,0 -10.926,56.588358 -19.6874,0 28.1396,-145.233144 53.1869,0 z m -47.6209,73.08041 39.8902,0 q 19.7905,0 29.5826,-8.03988 9.7922,-8.03987 9.7922,-24.01655 0,-6.69989 -2.3708,-11.44136 -2.2676,-4.74147 -6.4937,-7.83373 -4.2261,-3.09226 -10.2045,-4.53531 -5.8753,-1.44305 -13.0905,-1.44305 l -35.9733,0 -11.1322,57.30988 z"
           style="font-size:211.09828186px;letter-spacing:7.64903688px;word-spacing:-38.24518585px;fill:#736b68;fill-opacity:1"
           id="path4184" /><path
           d="m 2333.1006,-28.899736 29.6857,-152.963794 18.5535,0 -29.7887,152.963794 -18.4505,0 z"
           style="font-size:211.09828186px;letter-spacing:7.64903688px;word-spacing:-38.24518585px;fill:#736b68;fill-opacity:1"
           id="path4186" /><path
           d="m 2493.0949,-29.518188 q -2.9891,0.721527 -6.4937,1.133828 -3.4015,0.515377 -6.6999,0.515377 -9.586,0 -14.0182,-3.916863 -4.3292,-4.019938 -4.3292,-11.853663 0,-1.54613 0.2061,-3.298411 0.2062,-1.855356 0.3093,-3.29841 l -0.6185,0 q -3.6076,5.462992 -7.5245,9.792156 -3.8138,4.329164 -8.5552,7.421424 -4.6384,2.989185 -10.4106,4.535315 -5.7723,1.649205 -13.3998,1.649205 -8.0399,0 -14.1214,-2.576883 -5.9783,-2.576883 -10.1013,-6.802972 -4.1231,-4.329164 -6.1846,-9.895232 -2.0615,-5.566068 -2.0615,-11.441362 0,-8.349102 2.3708,-14.430547 2.4738,-6.081444 6.5968,-10.410608 4.2261,-4.329164 9.7921,-7.009123 5.6692,-2.783034 11.9568,-4.329164 6.3906,-1.54613 13.1936,-2.164582 6.803,-0.618452 13.2967,-0.721527 l 23.9135,-0.309226 0.7215,-3.710714 q 0.5154,-2.57688 0.8246,-4.94761 0.4123,-2.37074 0.4123,-4.43224 0,-9.37986 -5.4629,-13.8121 -5.463,-4.53531 -15.1521,-4.53531 -5.0507,0 -9.4829,0.8246 -4.3292,0.72153 -7.8338,2.78303 -3.4015,1.95844 -6.0814,5.463 -2.5769,3.40148 -4.2261,8.65832 l -18.3474,-2.98918 q 1.9584,-6.39067 5.3599,-11.64751 3.4015,-5.35992 8.9676,-9.17371 5.566,-3.81378 13.5028,-5.87529 8.0399,-2.16458 19.172,-2.16458 9.1737,0 16.2859,2.26765 7.1122,2.26766 11.9568,6.2876 4.8445,4.01994 7.3183,9.58601 2.5769,5.56606 2.5769,12.26596 0,3.19534 -0.6184,7.73065 -0.5154,4.432239 -1.34,8.452177 l -7.6276,38.962476 q -0.5154,2.267657 -0.8246,4.63839 -0.3092,2.370733 -0.3092,4.432239 0,3.813788 1.9584,5.669144 2.0615,1.855356 6.3907,1.855356 1.5461,0 3.0922,-0.206151 1.6492,-0.206151 3.0923,-0.515377 l -1.4431,11.544438 z m -25.3565,-54.629927 -20.512,0.412301 q -4.123,0.103076 -8.5552,0.412302 -4.4323,0.309226 -8.7614,1.339979 -4.2261,0.927678 -8.143,2.576883 -3.8138,1.649206 -6.6999,4.535315 -2.8861,2.783034 -4.6384,6.802972 -1.6492,4.019938 -1.6492,9.689081 0,3.298411 1.0308,6.493746 1.1338,3.09226 3.4015,5.566068 2.2676,2.370733 5.566,3.916863 3.4015,1.443055 7.9368,1.443055 8.9676,0 15.6675,-3.09226 6.6999,-3.09226 11.4413,-7.627575 4.7415,-4.535315 7.4215,-9.792157 2.783,-5.359917 3.7107,-9.792156 l 2.783,-12.884417 z"
           style="font-size:211.09828186px;letter-spacing:7.64903688px;word-spacing:-38.24518585px;fill:#736b68;fill-opacity:1"
           id="path4188" /><path
           d="m 2555.6831,-29.312038 q -3.8138,0.927678 -8.3491,1.649206 -4.5353,0.824602 -9.4829,0.824602 -8.7614,0 -13.8121,-5.256842 -4.9476,-5.256842 -4.9476,-13.91517 0,-3.29841 0.5154,-7.009122 0.5153,-3.813788 1.0307,-6.390671 l 12.9875,-67.514345 -12.8844,0 2.6799,-13.50287 13.0906,0 10.8229,-24.94423 12.3691,0 -4.8446,24.94423 20.6151,0 -2.68,13.50287 -20.615,0 -12.8845,66.483592 q -0.4123,2.061506 -0.8246,5.050691 -0.4123,2.989185 -0.4123,4.741465 0,4.329164 2.1646,6.699897 2.1646,2.370733 7.1122,2.370733 2.68,0 4.9476,-0.309226 2.3708,-0.412302 5.36,-1.133829 l -1.9585,13.709019 z"
           style="font-size:211.09828186px;letter-spacing:7.64903688px;word-spacing:-38.24518585px;fill:#736b68;fill-opacity:1"
           id="path4190" /><path
           d="m 2620.4359,-126.92438 -19.069,98.024644 -18.5535,0 19.0689,-98.024644 -15.6674,0 2.6799,-13.50287 15.6675,0 2.3707,-12.57519 q 1.2369,-6.08144 3.1953,-11.33828 1.9585,-5.25685 5.5661,-9.17371 3.7107,-3.91686 9.4829,-6.08144 5.7723,-2.26766 14.6367,-2.26766 3.2984,0 6.6999,0.30923 3.5046,0.30922 6.0815,0.92767 l -2.68,14.12132 q -0.9277,-0.20615 -2.1646,-0.30922 -1.1338,-0.10308 -2.4738,-0.20615 -1.34,-0.20615 -2.5769,-0.20615 -1.2369,-0.10308 -2.1645,-0.10308 -3.9169,0 -6.5969,1.13383 -2.5768,1.13383 -4.3291,3.29841 -1.6492,2.16458 -2.68,5.35992 -1.0307,3.09226 -1.8553,7.1122 l -1.9585,9.9983 21.7489,0 -2.6799,13.50287 -21.7489,0 z"
           style="font-size:211.09828186px;letter-spacing:7.64903688px;word-spacing:-38.24518585px;fill:#736b68;fill-opacity:1"
           id="path4192" /><path
           d="m 2752.6,-99.300189 q 0,5.359918 -0.6184,10.82291 -0.6185,5.359917 -2.0616,11.441362 -3.0922,13.605944 -8.6583,23.19195 -5.463,9.586006 -12.8844,15.564375 -7.4214,5.97837 -16.4921,8.761404 -9.0706,2.679958 -19.3781,2.679958 -9.8952,0 -17.9351,-2.989184 -8.0399,-3.09226 -13.8121,-8.864479 -5.6692,-5.875294 -8.8645,-14.224396 -3.0923,-8.452177 -3.0923,-19.172012 0.1031,-4.844541 0.5154,-9.998307 0.5154,-5.153767 1.7523,-10.719835 2.9892,-12.987487 8.246,-22.264267 5.2569,-9.37986 12.4721,-15.4613 7.2153,-6.08145 16.2859,-8.96756 9.1737,-2.88611 19.9967,-2.88611 10.9259,0 19.172,2.88611 8.3491,2.88611 13.9151,8.45218 5.6692,5.56607 8.5553,13.60594 2.8861,7.9368 2.8861,18.141261 z m -19.172,0 q 0,-7.936801 -1.7523,-13.502871 -1.7523,-5.56607 -5.1538,-9.07063 -3.2984,-3.60763 -8.0398,-5.25684 -4.7415,-1.6492 -10.6168,-1.6492 -5.463,0 -11.0291,1.33998 -5.4629,1.2369 -10.5136,5.15376 -4.9477,3.91686 -9.0707,11.13214 -4.123,7.21527 -6.906,19.17201 -1.34,5.669143 -1.9584,10.82291 -0.5154,5.050691 -0.5154,9.379855 0,8.452177 1.9584,14.430547 1.9584,5.978369 5.3599,9.689081 3.5046,3.710712 8.143,5.462993 4.7414,1.649205 10.3075,1.649205 5.5661,0 10.926,-1.236904 5.463,-1.236904 10.3075,-5.153767 4.8446,-4.019938 8.8645,-11.338286 4.123,-7.318349 6.9061,-19.378163 1.443,-6.18452 1.9584,-11.338287 0.6184,-5.153766 0.8246,-10.307533 z"
           style="font-size:211.09828186px;letter-spacing:7.64903688px;word-spacing:-38.24518585px;fill:#736b68;fill-opacity:1"
           id="path4194" /><path
           d="m 2841.06,-125.5844 q -1.7523,-0.51538 -4.2261,-0.92768 -2.3708,-0.4123 -5.0507,-0.4123 -6.5968,0 -11.8537,3.81379 -5.2568,3.81379 -9.2768,9.68908 -3.9168,5.87529 -6.4937,12.98749 -2.5769,7.009125 -3.7107,13.399796 l -11.3383,58.134488 -18.5536,0 16.6982,-85.552524 q 0.7216,-3.60764 1.34,-7.21528 0.6185,-3.60763 1.1339,-7.00912 0.6184,-3.40148 1.1338,-6.39067 0.5154,-3.09226 0.8246,-5.35992 l 17.5228,0 q -0.3092,2.26766 -0.8246,5.35992 -0.4123,3.09226 -0.9277,6.2876 -0.5154,3.19533 -1.0307,6.18452 -0.4123,2.88611 -0.8246,4.94761 l 0.4123,0 q 3.1953,-6.39067 6.2876,-11.02906 3.1953,-4.74146 6.5968,-7.73065 3.4015,-3.09226 7.2152,-4.53531 3.9169,-1.54613 8.5553,-1.54613 1.1338,0 2.4738,0.20615 1.34,0.10307 2.68,0.30922 1.443,0.20615 2.6799,0.51538 1.2369,0.20615 1.9585,0.4123 l -3.4015,15.4613 z"
           style="font-size:211.09828186px;letter-spacing:7.64903688px;word-spacing:-38.24518585px;fill:#736b68;fill-opacity:1"
           id="path4196" /><path
           d="m 2913.2342,-28.899736 12.7813,-65.349761 q 0.4123,-2.061507 0.8246,-4.535315 0.5154,-2.473808 0.8246,-4.947618 0.4123,-2.47381 0.6185,-4.63839 0.3092,-2.26766 0.3092,-3.81379 0,-7.73065 -3.9169,-11.75058 -3.9168,-4.12302 -12.7813,-4.12302 -5.8753,0 -11.2352,2.67996 -5.2568,2.57689 -9.4829,7.42143 -4.2261,4.74146 -7.3184,11.64751 -3.0922,6.802971 -4.5353,15.152073 l -12.1629,62.257501 -18.4505,0 17.1105,-87.717104 q 0.7216,-3.50457 1.34,-7.31835 0.7215,-3.91687 1.2369,-7.31835 0.6185,-3.50456 0.9277,-5.97837 0.4123,-2.47381 0.5154,-3.19534 l 17.5228,0 q 0,0.51538 -0.3092,2.78304 -0.3093,2.26765 -0.8246,5.25684 -0.4124,2.88611 -0.9277,5.97837 -0.4123,2.98918 -0.8246,5.05069 l 0.3092,0 q 3.0923,-4.84454 6.3907,-8.7614 3.2984,-3.91687 7.2152,-6.59682 3.9169,-2.78304 8.6584,-4.22609 4.8445,-1.44306 10.926,-1.44306 12.4721,0 19.7904,6.18452 7.3184,6.08145 8.7614,17.72896 3.2984,-5.15377 6.803,-9.48293 3.5046,-4.32917 7.7306,-7.5245 4.3292,-3.29841 9.483,-5.05069 5.2568,-1.85536 11.8536,-1.85536 13.9152,0 21.3366,7.5245 7.5245,7.5245 7.5245,21.7489 0,3.71071 -0.7215,8.3491 -0.6185,4.63839 -1.4431,8.555251 l -13.0905,67.308193 -18.3474,0 12.7813,-65.349761 q 0.4123,-2.061507 0.8246,-4.535315 0.5154,-2.473808 0.8246,-4.947618 0.4123,-2.47381 0.6185,-4.63839 0.3092,-2.26766 0.3092,-3.81379 0,-7.73065 -3.9169,-11.75058 -3.9168,-4.12302 -12.7813,-4.12302 -5.8753,0 -11.2352,2.57689 -5.2569,2.57688 -9.483,7.31835 -4.226,4.74146 -7.3183,11.54443 -3.0923,6.802975 -4.5353,15.152077 l -12.1629,62.566727 -18.3474,0 z"
           style="font-size:211.09828186px;letter-spacing:7.64903688px;word-spacing:-38.24518585px;fill:#736b68;fill-opacity:1"
           id="path4198" /></g></g></g></svg>